<svg width="163" height="60" viewBox="0 0 163 60" fill="none" xmlns="http://www.w3.org/2000/svg">
<path d="M161.814 42.1702H157.484C157.461 41.9032 157.368 41.6731 157.203 41.4799C157.038 41.2867 156.825 41.139 156.564 41.0367C156.308 40.9287 156.024 40.8748 155.711 40.8748C155.308 40.8748 154.961 40.9486 154.672 41.0964C154.382 41.2441 154.24 41.4543 154.246 41.727C154.24 41.9202 154.322 42.0992 154.493 42.264C154.669 42.4287 155.007 42.5566 155.507 42.6475L158.166 43.1248C159.507 43.3691 160.504 43.781 161.158 44.3606C161.817 44.9344 162.149 45.7043 162.155 46.6702C162.149 47.602 161.871 48.4117 161.319 49.0992C160.774 49.781 160.027 50.3094 159.078 50.6844C158.135 51.0537 157.058 51.2384 155.848 51.2384C153.848 51.2384 152.283 50.8293 151.152 50.0111C150.027 49.193 149.399 48.1134 149.268 46.7725H153.939C154.001 47.1873 154.206 47.5083 154.552 47.7356C154.905 47.9572 155.348 48.0679 155.882 48.0679C156.314 48.0679 156.669 47.9941 156.947 47.8464C157.231 47.6986 157.376 47.4884 157.382 47.2157C157.376 46.9657 157.251 46.7668 157.007 46.6191C156.768 46.4714 156.393 46.352 155.882 46.2611L153.564 45.852C152.229 45.6191 151.229 45.1759 150.564 44.5225C149.899 43.8691 149.569 43.0282 149.575 41.9998C149.569 41.0907 149.808 40.3208 150.291 39.6901C150.78 39.0537 151.476 38.5708 152.379 38.2412C153.288 37.906 154.365 37.7384 155.609 37.7384C157.501 37.7384 158.993 38.1304 160.084 38.9145C161.18 39.6986 161.757 40.7839 161.814 42.1702Z" fill="#8B0A5F"/>
<path d="M139.796 51.2043C138.961 51.2043 138.222 51.068 137.58 50.7952C136.944 50.5168 136.444 50.0964 136.08 49.5339C135.716 48.9714 135.535 48.2554 135.535 47.3861C135.535 46.6702 135.657 46.0594 135.901 45.5537C136.145 45.0424 136.486 44.6248 136.924 44.3009C137.361 43.977 137.87 43.7299 138.449 43.5594C139.035 43.389 139.665 43.2782 140.341 43.227C141.074 43.1702 141.663 43.102 142.106 43.0225C142.555 42.9373 142.878 42.8208 143.077 42.6731C143.276 42.5197 143.376 42.3179 143.376 42.0679V42.0339C143.376 41.693 143.245 41.4316 142.984 41.2498C142.722 41.0679 142.387 40.977 141.978 40.977C141.529 40.977 141.163 41.0765 140.878 41.2753C140.6 41.4685 140.432 41.7668 140.376 42.1702H136.046C136.103 41.3748 136.356 40.6418 136.805 39.9714C137.259 39.2952 137.921 38.7554 138.79 38.352C139.66 37.9429 140.745 37.7384 142.046 37.7384C142.984 37.7384 143.824 37.8492 144.569 38.0708C145.313 38.2867 145.947 38.5907 146.469 38.9827C146.992 39.3691 147.39 39.8236 147.663 40.3464C147.941 40.8634 148.08 41.4259 148.08 42.0339V50.9998H143.682V49.1589H143.58C143.319 49.6475 143.001 50.0424 142.626 50.3435C142.256 50.6447 141.833 50.8634 141.356 50.9998C140.884 51.1361 140.364 51.2043 139.796 51.2043ZM141.33 48.2384C141.688 48.2384 142.023 48.1645 142.336 48.0168C142.654 47.8691 142.913 47.656 143.111 47.3776C143.31 47.0992 143.41 46.7611 143.41 46.3634V45.2725C143.285 45.3236 143.151 45.3719 143.009 45.4174C142.873 45.4628 142.725 45.5055 142.566 45.5452C142.413 45.585 142.248 45.6219 142.072 45.656C141.901 45.6901 141.722 45.7214 141.535 45.7498C141.171 45.8066 140.873 45.9003 140.64 46.031C140.413 46.156 140.242 46.3123 140.128 46.4998C140.02 46.6816 139.966 46.8861 139.966 47.1134C139.966 47.477 140.094 47.7554 140.35 47.9486C140.606 48.1418 140.932 48.2384 141.33 48.2384Z" fill="#8B0A5F"/>
<path d="M135.618 37.9089L131.221 50.9998H125.766L121.368 37.9089H126.311L128.425 46.568H128.561L130.675 37.9089H135.618Z" fill="#8B0A5F"/>
<path d="M112.563 43.6361V50.9998H107.858V37.9089H112.324V40.3975H112.46C112.744 39.5679 113.244 38.9174 113.96 38.4458C114.682 37.9742 115.523 37.7384 116.483 37.7384C117.409 37.7384 118.213 37.9515 118.895 38.3776C119.582 38.7981 120.114 39.3776 120.489 40.1162C120.869 40.8549 121.057 41.6986 121.051 42.6475V50.9998H116.347V43.6361C116.352 42.9884 116.188 42.4799 115.852 42.1106C115.523 41.7412 115.063 41.5566 114.472 41.5566C114.085 41.5566 113.747 41.6418 113.457 41.8123C113.173 41.977 112.955 42.2157 112.801 42.5282C112.648 42.835 112.568 43.2043 112.563 43.6361Z" fill="#8B0A5F"/>
<path d="M97.8063 51.2043C96.9711 51.2043 96.2324 51.068 95.5904 50.7952C94.954 50.5168 94.454 50.0964 94.0904 49.5339C93.7267 48.9714 93.5449 48.2554 93.5449 47.3861C93.5449 46.6702 93.6671 46.0594 93.9114 45.5537C94.1557 45.0424 94.4966 44.6248 94.9341 44.3009C95.3716 43.977 95.8801 43.7299 96.4597 43.5594C97.0449 43.389 97.6756 43.2782 98.3517 43.227C99.0847 43.1702 99.6728 43.102 100.116 43.0225C100.565 42.9373 100.889 42.8208 101.088 42.6731C101.286 42.5197 101.386 42.3179 101.386 42.0679V42.0339C101.386 41.693 101.255 41.4316 100.994 41.2498C100.732 41.0679 100.397 40.977 99.9881 40.977C99.5392 40.977 99.1728 41.0765 98.8887 41.2753C98.6103 41.4685 98.4426 41.7668 98.3858 42.1702H94.0563C94.1131 41.3748 94.3659 40.6418 94.8148 39.9714C95.2694 39.2952 95.9313 38.7554 96.8006 38.352C97.6699 37.9429 98.7551 37.7384 100.056 37.7384C100.994 37.7384 101.835 37.8492 102.579 38.0708C103.323 38.2867 103.957 38.5907 104.48 38.9827C105.002 39.3691 105.4 39.8236 105.673 40.3464C105.951 40.8634 106.09 41.4259 106.09 42.0339V50.9998H101.693V49.1589H101.59C101.329 49.6475 101.011 50.0424 100.636 50.3435C100.267 50.6447 99.8432 50.8634 99.3659 50.9998C98.8944 51.1361 98.3745 51.2043 97.8063 51.2043ZM99.3404 48.2384C99.6983 48.2384 100.034 48.1645 100.346 48.0168C100.664 47.8691 100.923 47.656 101.122 47.3776C101.32 47.0992 101.42 46.7611 101.42 46.3634V45.2725C101.295 45.3236 101.161 45.3719 101.019 45.4174C100.883 45.4628 100.735 45.5055 100.576 45.5452C100.423 45.585 100.258 45.6219 100.082 45.656C99.9114 45.6901 99.7324 45.7214 99.5449 45.7498C99.1813 45.8066 98.883 45.9003 98.65 46.031C98.4228 46.156 98.2523 46.3123 98.1387 46.4998C98.0307 46.6816 97.9767 46.8861 97.9767 47.1134C97.9767 47.477 98.1046 47.7554 98.3603 47.9486C98.6159 48.1418 98.9426 48.2384 99.3404 48.2384Z" fill="#8B0A5F"/>
<path d="M92.4205 40.0908H87.6137C87.5796 39.6931 87.4887 39.3323 87.341 39.0084C87.1989 38.6845 87.0001 38.4061 86.7444 38.1732C86.4944 37.9345 86.1904 37.7527 85.8325 37.6277C85.4745 37.497 85.0682 37.4317 84.6137 37.4317C83.8182 37.4317 83.145 37.6249 82.5938 38.0112C82.0484 38.3976 81.6336 38.9516 81.3495 39.6732C81.0711 40.3948 80.9319 41.2612 80.9319 42.2726C80.9319 43.3408 81.0739 44.2357 81.358 44.9573C81.6478 45.6732 82.0654 46.213 82.6109 46.5766C83.1563 46.9345 83.8126 47.1135 84.5796 47.1135C85.0171 47.1135 85.4092 47.0595 85.7557 46.9516C86.1023 46.838 86.4035 46.676 86.6592 46.4658C86.9148 46.2556 87.1222 46.0027 87.2813 45.7073C87.4461 45.4061 87.5569 45.0681 87.6137 44.6931L92.4205 44.7272C92.3637 45.4658 92.1563 46.2186 91.7984 46.9857C91.4404 47.747 90.9319 48.4516 90.2728 49.0993C89.6194 49.7414 88.8097 50.2584 87.8438 50.6505C86.8779 51.0425 85.7557 51.2385 84.4773 51.2385C82.8751 51.2385 81.4376 50.8948 80.1648 50.2073C78.8978 49.5198 77.895 48.5084 77.1563 47.1732C76.4234 45.838 76.0569 44.2044 76.0569 42.2726C76.0569 40.3294 76.4319 38.6931 77.1819 37.3635C77.9319 36.0283 78.9432 35.0198 80.216 34.338C81.4887 33.6505 82.9092 33.3067 84.4773 33.3067C85.5796 33.3067 86.5938 33.4573 87.52 33.7584C88.4461 34.0595 89.2586 34.4999 89.9575 35.0794C90.6563 35.6533 91.2188 36.3607 91.645 37.2016C92.0711 38.0425 92.3296 39.0056 92.4205 40.0908Z" fill="#8B0A5F"/>
<path d="M138.983 9.54547V27H135.028L128.721 17.8296H128.619V27H123.88V9.54547H127.903L134.108 18.6818H134.244V9.54547H138.983Z" fill="#8B0A5F"/>
<path d="M122.168 18.2726C122.168 20.2158 121.79 21.855 121.034 23.1902C120.279 24.5198 119.259 25.5283 117.975 26.2158C116.691 26.8976 115.259 27.2385 113.679 27.2385C112.088 27.2385 110.651 26.8948 109.367 26.2073C108.088 25.5141 107.071 24.5027 106.316 23.1732C105.566 21.838 105.191 20.2044 105.191 18.2726C105.191 16.3294 105.566 14.6931 106.316 13.3635C107.071 12.0283 108.088 11.0198 109.367 10.338C110.651 9.65045 112.088 9.3067 113.679 9.3067C115.259 9.3067 116.691 9.65045 117.975 10.338C119.259 11.0198 120.279 12.0283 121.034 13.3635C121.79 14.6931 122.168 16.3294 122.168 18.2726ZM117.293 18.2726C117.293 17.2272 117.154 16.3465 116.875 15.6306C116.602 14.909 116.196 14.3635 115.656 13.9942C115.122 13.6192 114.463 13.4317 113.679 13.4317C112.895 13.4317 112.233 13.6192 111.693 13.9942C111.159 14.3635 110.753 14.909 110.475 15.6306C110.202 16.3465 110.066 17.2272 110.066 18.2726C110.066 19.3181 110.202 20.2016 110.475 20.9232C110.753 21.6391 111.159 22.1845 111.693 22.5595C112.233 22.9289 112.895 23.1135 113.679 23.1135C114.463 23.1135 115.122 22.9289 115.656 22.5595C116.196 22.1845 116.602 21.6391 116.875 20.9232C117.154 20.2016 117.293 19.3181 117.293 18.2726Z" fill="#8B0A5F"/>
<path d="M99.1634 14.9999C99.118 14.4317 98.9049 13.9885 98.5242 13.6703C98.1492 13.3522 97.5782 13.1931 96.8112 13.1931C96.3225 13.1931 95.922 13.2527 95.6095 13.372C95.3026 13.4857 95.0754 13.6419 94.9276 13.8408C94.7799 14.0397 94.7032 14.2669 94.6975 14.5226C94.6862 14.7328 94.7231 14.9232 94.8083 15.0936C94.8992 15.2584 95.0413 15.409 95.2345 15.5453C95.4276 15.676 95.6748 15.7953 95.9759 15.9033C96.2771 16.0112 96.635 16.1078 97.0498 16.1931L98.4816 16.4999C99.4475 16.7044 100.274 16.9743 100.962 17.3095C101.649 17.6448 102.212 18.0397 102.649 18.4942C103.087 18.9431 103.408 19.4487 103.612 20.0112C103.823 20.5737 103.93 21.1874 103.936 21.8522C103.93 22.9999 103.644 23.9715 103.075 24.7669C102.507 25.5624 101.695 26.1675 100.638 26.5823C99.5867 26.997 98.3225 27.2044 96.8452 27.2044C95.3282 27.2044 94.0043 26.98 92.8737 26.5311C91.7487 26.0823 90.8737 25.3919 90.2487 24.4601C89.6293 23.5226 89.3168 22.3237 89.3112 20.8635H93.8112C93.8396 21.3976 93.9731 21.8465 94.2117 22.2101C94.4504 22.5737 94.7856 22.8493 95.2174 23.0368C95.6549 23.2243 96.1748 23.3181 96.7771 23.3181C97.2827 23.3181 97.706 23.2556 98.047 23.1306C98.3879 23.0056 98.6464 22.8323 98.8225 22.6107C98.9987 22.3891 99.0896 22.1362 99.0952 21.8522C99.0896 21.5851 99.0015 21.3522 98.831 21.1533C98.6663 20.9487 98.3935 20.7669 98.0129 20.6078C97.6322 20.4431 97.118 20.2897 96.4702 20.1476L94.7316 19.7726C93.1862 19.4374 91.9674 18.8777 91.0754 18.0936C90.189 17.3039 89.7487 16.2272 89.7543 14.8635C89.7487 13.7556 90.0441 12.7868 90.6407 11.9573C91.243 11.122 92.0754 10.4715 93.1379 10.0056C94.206 9.53966 95.4305 9.3067 96.8112 9.3067C98.2202 9.3067 99.439 9.5425 100.467 10.0141C101.496 10.4857 102.288 11.1505 102.845 12.0084C103.408 12.8607 103.692 13.8578 103.698 14.9999H99.1634Z" fill="#8B0A5F"/>
<path d="M83.3181 9.54547H87.9886V21.5114C87.9829 22.6477 87.696 23.6477 87.1278 24.5114C86.5653 25.3693 85.7869 26.0398 84.7926 26.5227C83.8039 27 82.6647 27.2387 81.3749 27.2387C80.2556 27.2387 79.2329 27.0455 78.3068 26.6591C77.3806 26.2671 76.642 25.6534 76.0909 24.8182C75.5397 23.9773 75.267 22.8864 75.2727 21.5455H80.0113C80.0284 21.983 80.1022 22.3523 80.2329 22.6534C80.3693 22.9546 80.5568 23.1818 80.7954 23.3352C81.0397 23.483 81.3352 23.5568 81.6818 23.5568C82.034 23.5568 82.3295 23.4801 82.5681 23.3267C82.8124 23.1733 82.9971 22.946 83.1221 22.6449C83.2471 22.3381 83.3124 21.9602 83.3181 21.5114V9.54547Z" fill="#8B0A5F"/>
<path d="M5 60C2.23858 60 -9.78513e-08 57.7614 -2.18557e-07 55L-2.40413e-06 5C-2.52483e-06 2.23858 2.23857 -9.78513e-08 5 -2.18557e-07L55 -2.40413e-06C57.7614 -2.52483e-06 60 2.23857 60 5L60 55C60 57.7614 57.7614 60 55 60L5 60Z" fill="#8B0A5F"/>
<path d="M9.23071 43.8461C9.23071 39.1729 13.0191 35.3846 17.6923 35.3846V35.3846C22.3654 35.3846 26.1538 39.1729 26.1538 43.8461V43.8461C26.1538 48.5193 22.3654 52.3077 17.6922 52.3077V52.3077C13.0191 52.3077 9.23071 48.5193 9.23071 43.8461V43.8461Z" fill="white"/>
<path d="M35.3845 17.6924C35.3845 13.0192 39.1729 9.23084 43.8461 9.23084V9.23084C48.5192 9.23084 52.3076 13.0192 52.3076 17.6924V17.6924C52.3076 22.3656 48.5192 26.1539 43.8461 26.1539V26.1539C39.1729 26.1539 35.3845 22.3655 35.3845 17.6924V17.6924Z" fill="white"/>
<path fill-rule="evenodd" clip-rule="evenodd" d="M47.6924 33.9422C47.6924 41.5362 41.5363 47.6923 33.9424 47.6923L30.7693 47.6923L30.7693 41.3461L33.9424 41.3461C38.0314 41.3461 41.3462 38.0313 41.3462 33.9423L41.3462 30.7692L47.6924 30.7692L47.6924 33.9422Z" fill="white"/>
</svg>
