<svg width="1024" height="1024" viewBox="0 0 1024 1024" fill="none" xmlns="http://www.w3.org/2000/svg">
<g clip-path="url(#clip0_33_23)">
<rect width="1024" height="1024" fill="#8B0A5F"/>
<path d="M157.538 748.306C157.538 668.55 222.192 603.896 301.948 603.896C381.703 603.896 446.358 668.55 446.358 748.306C446.358 828.062 381.703 892.716 301.948 892.716C222.192 892.716 157.538 828.062 157.538 748.306Z" fill="white"/>
<path d="M603.9 301.948C603.9 222.192 668.555 157.537 748.31 157.538C828.066 157.538 892.72 222.192 892.72 301.948C892.72 381.703 828.066 446.358 748.31 446.358C668.555 446.358 603.9 381.703 603.9 301.948Z" fill="white"/>
<path fill-rule="evenodd" clip-rule="evenodd" d="M813.95 579.283C813.95 708.886 708.886 813.95 579.283 813.95L525.129 813.95L525.129 705.642L579.283 705.642C649.069 705.642 705.642 649.069 705.642 579.283L705.642 525.13L813.95 525.13L813.95 579.283Z" fill="white"/>
</g>
<defs>
<clipPath id="clip0_33_23">
<rect width="1024" height="1024" rx="196" fill="white"/>
</clipPath>
</defs>
</svg>
